<mxfile host="app.diagrams.net" modified="2023-08-22T06:41:55.554Z" agent="Mozilla/5.0 (Windows NT 10.0; Win64; x64) AppleWebKit/537.36 (KHTML, like Gecko) Chrome/116.0.0.0 Safari/537.36" version="21.6.8" etag="2ptvI6r5drkGLX3LpL_L" type="github">
  <diagram name="Page-1" id="Qk-sf9xTINelYp3Wi-OP">
    <mxGraphModel>
      <root>
        <mxCell id="0" />
        <mxCell id="1" parent="0" />
      </root>
    </mxGraphModel>
  </diagram>
</mxfile>
